<?xml version="1.0" encoding="utf-8"?>
<!-- Generator: Adobe Illustrator 21.1.0, SVG Export Plug-In . SVG Version: 6.00 Build 0)  -->
<svg version="1.1" id="图层_1" xmlns="http://www.w3.org/2000/svg" xmlns:xlink="http://www.w3.org/1999/xlink" x="0px" y="0px"
	 viewBox="0 0 200 200" style="enable-background:new 0 0 200 200;" xml:space="preserve">
<style type="text/css">
	.st0{fill:#FFFFFF;}
</style>
<path class="st0" d="M72.6,177.9c0,4.8,2.8,9.2,7.3,11.1l12.9,5.7c4.7,2.1,10.1,2.1,14.8,0l12.7-5.7c4.4-2,7.2-6.3,7.2-11.1v-2.9
	H72.6V177.9L72.6,177.9z M100,11.7c-40.4,0-73.1,32.7-73.1,73.1c0,30.7,18.9,56.9,45.7,67.8v8.3H93c-0.2-35.7-10.1-64.3-15.5-66.3
	c-2.2,0-5.1,3.3-7.6,8.6c-1.6,3.5-5.8,5.1-9.3,3.5s-5.1-5.8-3.5-9.3c6.3-13.9,14.7-16.8,20.6-16.8c10.5,0,17.7,12.4,22.2,28.3
	c4.6-15.9,11.7-28.3,22.2-28.3c5.9,0,14.2,2.9,20.6,16.8c1.5,3.5-0.1,7.7-3.6,9.2c-3.4,1.5-7.5,0-9.1-3.4c-2.5-5.4-5.4-8.6-7.8-8.6
	c-5.1,1.9-15.1,30.5-15.2,66.3h20.4v-8.3c26.8-10.9,45.7-37.1,45.7-67.8C173.1,44.4,140.4,11.7,100,11.7z"/>
</svg>
