<svg class="ldi-zd3wp1" width="20" height="28" style="padding: 1px 1px 0 1px;"  xmlns="http://www.w3.org/2000/svg" xmlns:xlink="http://www.w3.org/1999/xlink" viewBox="0 0 100 100" preserveAspectRatio="xMidYMid"><!--?xml version="1.0" encoding="utf-8"?--><!--Generator: Adobe Illustrator 21.0.0, SVG Export Plug-In . SVG Version: 6.00 Build 0)--><svg version="1.1" id="tuchen_1" xmlns="http://www.w3.org/2000/svg" xmlns:xlink="http://www.w3.org/1999/xlink" x="0px" y="0px" viewBox="0 0 100 100" style="transform-origin: 50px 50px 0px;" xml:space="preserve"><g style="transform-origin: 50px 50px 0px;"><g style="transform-origin: 50px 50px 0px; transform: scale(0.99);"><g style="transform-origin: 50px 50px 0px;"><g><style type="text/css" class="ld ld-heartbeat" style="transform-origin: 50px 50px 0px; animation-duration: 4s; animation-delay: -4s; animation-direction: normal;">.st0{fill:#E0E0E0;stroke:#333333;stroke-width:4;stroke-miterlimit:10;} .st1{fill:#FFFFFF;} .st2{fill:#333333;stroke:#333333;stroke-width:2;stroke-miterlimit:10;} .st3{fill:#FFFFFF;stroke:#333333;stroke-width:3.5699;stroke-miterlimit:10;} .st4{fill:#A0C8D7;} .st5{fill:#ABBD81;} .st6{fill:#FFFFFF;stroke:#333333;stroke-width:3.7333;stroke-miterlimit:10;} .st7{fill:#333333;} .st8{fill:#666666;} .st9{fill:#F47E60;} .st10{fill:#77A4BD;} .st11{fill:#E0E0E0;} .st12{fill:#A0C8D7;stroke:#333333;stroke-width:4.15;stroke-linecap:round;stroke-linejoin:round;stroke-miterlimit:10;} .st13{fill:#849B87;} .st14{fill:#FFFFFF;stroke:#333333;stroke-width:4.517;stroke-linejoin:round;stroke-miterlimit:10;} .st15{fill:#FFFFFF;stroke:#E15B64;stroke-width:9.375;stroke-miterlimit:10;} .st16{fill:#E0E0E0;stroke:#666666;stroke-width:4;stroke-miterlimit:10;} .st17{fill:#E15B64;} .st18{fill:none;stroke:#666666;stroke-width:4;stroke-linecap:round;stroke-miterlimit:10;} .st19{fill:#FFFFFF;stroke:#333333;stroke-miterlimit:10;} .st20{fill:#E0E0E0;stroke:#333333;stroke-width:4.8241;stroke-miterlimit:10;} .st21{fill:#333333;stroke:#333333;stroke-width:3.0189;stroke-miterlimit:10;} .st22{fill:#E0E0E0;stroke:#333333;stroke-miterlimit:10;} .st23{fill:none;stroke:#333333;stroke-width:4;stroke-miterlimit:10;} .st24{fill:#666666;stroke:#333333;stroke-width:6;stroke-miterlimit:10;} .st25{fill:none;stroke:#333333;stroke-width:3.7466;stroke-linecap:round;stroke-miterlimit:10;} .st26{fill:#ABBD81;stroke:#333333;stroke-width:4;stroke-miterlimit:10;} .st27{fill:#66503A;stroke:#333333;stroke-width:4;stroke-miterlimit:10;} .st28{fill:#FFFFFF;stroke:#333333;stroke-width:4;stroke-miterlimit:10;} .st29{fill:#FFFFFF;stroke:#333333;stroke-width:4;stroke-linecap:round;stroke-miterlimit:10;} .st30{fill:none;stroke:#333333;stroke-width:6;stroke-linecap:round;stroke-miterlimit:10;} .st31{fill:none;stroke:#333333;stroke-width:4;stroke-linecap:round;stroke-linejoin:round;stroke-miterlimit:10;} .st32{fill:#F47E60;stroke:#333333;stroke-width:4.8241;stroke-miterlimit:10;} .st33{fill:#E15B64;stroke:#333333;stroke-width:4.8241;stroke-miterlimit:10;} .st34{fill:#77A4BD;stroke:#333333;stroke-width:4.8241;stroke-miterlimit:10;} .st35{fill:#F8B26A;stroke:#333333;stroke-width:4.8241;stroke-miterlimit:10;} .st36{fill:#ABBD81;stroke:#333333;stroke-width:4.8241;stroke-miterlimit:10;} .st37{fill:#A0C8D7;stroke:#333333;stroke-width:4.8241;stroke-miterlimit:10;} .st38{fill:#F47E60;stroke:#333333;stroke-miterlimit:10;} .st39{fill:#E15B64;stroke:#333333;stroke-miterlimit:10;} .st40{fill:#77A4BD;stroke:#333333;stroke-miterlimit:10;} .st41{fill:#F8B26A;stroke:#333333;stroke-miterlimit:10;} .st42{fill:#ABBD81;stroke:#333333;stroke-miterlimit:10;} .st43{fill:#A0C8D7;stroke:#333333;stroke-miterlimit:10;} .st44{fill:#666666;stroke:#333333;stroke-width:4;stroke-miterlimit:10;} .st45{fill:#A0C8D7;stroke:#333333;stroke-width:4;stroke-miterlimit:10;} .st46{fill:none;stroke:#FFFFFF;stroke-width:6;stroke-linecap:round;stroke-miterlimit:10;} .st47{fill:#E0E0E0;stroke:#000000;stroke-width:2.5;stroke-linecap:round;stroke-miterlimit:10;} .st48{fill:none;stroke:#E15B64;stroke-width:8;stroke-miterlimit:10;} .st49{fill:#C33737;} .st50{fill:url(#SVGID_1_);stroke:#333333;stroke-width:7.5868;stroke-miterlimit:10;} .st51{fill:none;stroke:#333333;stroke-width:4.7966;stroke-miterlimit:10;} .st52{fill:#1A1A1A;} .st53{opacity:0.8;fill:none;stroke:#FFFFFF;stroke-width:4.7961;stroke-linecap:round;stroke-miterlimit:10;} .st54{opacity:0.8;fill:#FFFFFF;} .st55{fill:#E0E0E0;stroke:#333333;stroke-width:3.6091;stroke-miterlimit:10;} .st56{fill:#E0E0E0;stroke:#333333;stroke-width:3.5573;stroke-miterlimit:10;} .st57{fill:#F8B26A;} .st58{fill:none;stroke:#333333;stroke-width:2.0088;stroke-miterlimit:10;} .st59{fill:none;stroke:#333333;stroke-width:4.3399;stroke-miterlimit:10;} .st60{fill:#333333;stroke:#333333;stroke-width:6;stroke-miterlimit:10;} .st61{fill:none;stroke:#333333;stroke-width:8;stroke-linecap:round;stroke-miterlimit:10;} .st62{fill:#333333;stroke:#333333;stroke-width:4.517;stroke-linejoin:round;stroke-miterlimit:10;} .st63{fill:none;stroke:#333333;stroke-width:4.517;stroke-linecap:round;stroke-linejoin:round;stroke-miterlimit:10;} .st64{fill:none;stroke:#FFFFFF;stroke-width:4.517;stroke-linecap:round;stroke-linejoin:round;stroke-miterlimit:10;} .st65{fill:#FFFFFF;stroke:#333333;stroke-width:6.8572;stroke-linecap:round;stroke-linejoin:round;stroke-miterlimit:10;} .st66{fill:#333333;stroke:#333333;stroke-width:5.9833;stroke-linecap:round;stroke-linejoin:round;stroke-miterlimit:10;} .st67{fill:none;stroke:#333333;stroke-width:6;stroke-linejoin:round;stroke-miterlimit:10;} .st68{fill:none;stroke:#333333;stroke-width:6;stroke-linecap:round;stroke-linejoin:round;stroke-miterlimit:10;} .st69{fill:none;stroke:#333333;stroke-width:5;stroke-miterlimit:10;} .st70{fill-rule:evenodd;clip-rule:evenodd;fill:#FFFFFF;} .st71{fill-rule:evenodd;clip-rule:evenodd;fill:#FFDC6C;} .st72{fill:none;stroke:#F8B26A;stroke-width:1.2695;stroke-linecap:round;stroke-miterlimit:10;} .st73{fill:none;stroke:#333333;stroke-width:3.53;stroke-linecap:round;stroke-miterlimit:10;} .st74{fill:#FFFFFF;stroke:#333333;stroke-width:4.15;stroke-linecap:round;stroke-linejoin:round;stroke-miterlimit:10;} .st75{fill-rule:evenodd;clip-rule:evenodd;fill:#333333;} .st76{fill:none;stroke:#333333;stroke-width:1.2695;stroke-linecap:round;stroke-miterlimit:10;} .st77{fill:#4A3827;} .st78{fill:none;stroke:#333333;stroke-width:6;stroke-miterlimit:10;} .st79{fill:#F5E6C8;} .st80{fill:#E0E0E0;stroke:#666666;stroke-width:3.2312;stroke-miterlimit:10;} .st81{fill:none;stroke:#F8B26A;stroke-width:3;stroke-linecap:round;stroke-linejoin:round;stroke-miterlimit:10;} .st82{fill:#333333;stroke:#FFFFFF;stroke-miterlimit:10;} .st83{fill:none;stroke:#333333;stroke-width:3.7647;stroke-miterlimit:10;} .st84{fill:#77A4BD;stroke:#FFFFFF;stroke-width:3.7647;stroke-miterlimit:10;} .st85{opacity:0.5;fill:#A0C8D7;} .st86{fill:#A0C8D7;stroke:#FFFFFF;stroke-width:2.6329;stroke-linecap:round;stroke-miterlimit:10;} .st87{fill:none;stroke:#849B87;stroke-width:4;stroke-linecap:round;stroke-miterlimit:10;} .st88{fill:none;stroke:#E15B64;stroke-width:4;stroke-linecap:round;stroke-miterlimit:10;} .st89{fill:none;stroke:#849B87;stroke-width:6;stroke-linecap:round;stroke-miterlimit:10;} .st90{fill:none;stroke:#F47E60;stroke-width:6.0118;stroke-linecap:round;stroke-miterlimit:10;} .st91{fill:none;stroke:#E15B64;stroke-width:5.4;stroke-linecap:round;stroke-miterlimit:10;}</style><g class="ld ld-heartbeat" style="transform-origin: 50px 50px 0px; animation-duration: 4s; animation-delay: -3.71429s; animation-direction: normal;"><rect x="34.615" y="40.553" class="st77" width="30.769" height="18.894" fill="#ffffff" style="fill: rgb(255, 255, 255);"></rect></g><g class="ld ld-heartbeat" style="transform-origin: 50px 50px 0px; animation-duration: 4s; animation-delay: -3.42857s; animation-direction: normal;"><rect x="34.615" y="15.83" class="st77" width="30.769" height="18.893" fill="#ffffff" style="fill: rgb(255, 255, 255);"></rect></g><g class="ld ld-heartbeat" style="transform-origin: 50px 50px 0px; animation-duration: 4s; animation-delay: -3.14286s; animation-direction: normal;"><rect x="34.615" y="65.277" class="st77" width="30.769" height="18.893" fill="#ffffff" style="fill: rgb(255, 255, 255);"></rect></g><g class="ld ld-heartbeat" style="transform-origin: 50px 50px 0px; animation-duration: 4s; animation-delay: -2.85714s; animation-direction: normal;"><path class="st7" d="M82.817,10.049c-1.407,0.254-2.371,1.578-2.371,3.008v3.703c0,1.319-1.069,2.388-2.388,2.388h-4.454 c-1.319,0-2.388-1.069-2.388-2.388v-3.846c0-1.61-1.305-2.915-2.915-2.915h-0.966H31.7c-0.126,0-0.246,0.022-0.367,0.037 c-1.435,0.182-2.548,1.394-2.548,2.878v3.846c0,1.319-1.069,2.388-2.388,2.388h-4.454c-1.319,0-2.388-1.069-2.388-2.388v-3.703 c0-1.43-0.964-2.754-2.371-3.008c-1.849-0.334-3.459,1.077-3.459,2.866l0,74.028c0,1.43,0.964,2.754,2.371,3.008 c1.849,0.334,3.459-1.078,3.459-2.866v-3.846c0-1.319,1.069-2.388,2.388-2.388h4.454c1.319,0,2.388,1.069,2.388,2.388v3.846 c0,1.484,1.113,2.696,2.548,2.878C31.455,89.978,31.575,90,31.7,90h35.633H68.3c1.61,0,2.915-1.305,2.915-2.915v-3.846 c0-1.319,1.069-2.388,2.388-2.388h4.454c1.319,0,2.388,1.069,2.388,2.388v3.703c0,1.43,0.964,2.754,2.371,3.008 c1.849,0.334,3.459-1.078,3.459-2.866v-74.17C86.275,11.127,84.665,9.715,82.817,10.049z M28.785,72.633 c0,1.319-1.069,2.388-2.388,2.388h-4.454c-1.319,0-2.388-1.069-2.388-2.388v-3.362c0-1.319,1.069-2.388,2.388-2.388h4.454 c1.319,0,2.388,1.069,2.388,2.388V72.633z M28.785,58.664c0,1.319-1.069,2.388-2.388,2.388h-4.454c-1.319,0-2.388-1.069-2.388-2.388 v-3.361c0-1.319,1.069-2.388,2.388-2.388h4.454c1.319,0,2.388,1.069,2.388,2.388V58.664z M28.785,44.697 c0,1.319-1.069,2.388-2.388,2.388h-4.454c-1.319,0-2.388-1.069-2.388-2.388v-3.361c0-1.319,1.069-2.388,2.388-2.388h4.454 c1.319,0,2.388,1.069,2.388,2.388V44.697z M28.785,30.729c0,1.319-1.069,2.388-2.388,2.388h-4.454c-1.319,0-2.388-1.069-2.388-2.388 v-3.362c0-1.319,1.069-2.388,2.388-2.388h4.454c1.319,0,2.388,1.069,2.388,2.388V30.729z M65.385,84.17H34.615V65.277h30.769V84.17z M65.385,59.447H34.615V40.553h30.769V59.447z M65.385,34.723H34.615V15.83h30.769V34.723z M80.445,72.633 c0,1.319-1.069,2.388-2.388,2.388h-4.454c-1.319,0-2.388-1.069-2.388-2.388v-3.362c0-1.319,1.069-2.388,2.388-2.388h4.454 c1.319,0,2.388,1.069,2.388,2.388V72.633z M80.445,58.664c0,1.319-1.069,2.388-2.388,2.388h-4.454c-1.319,0-2.388-1.069-2.388-2.388 v-3.361c0-1.319,1.069-2.388,2.388-2.388h4.454c1.319,0,2.388,1.069,2.388,2.388V58.664z M80.445,44.697 c0,1.319-1.069,2.388-2.388,2.388h-4.454c-1.319,0-2.388-1.069-2.388-2.388v-3.361c0-1.319,1.069-2.388,2.388-2.388h4.454 c1.319,0,2.388,1.069,2.388,2.388V44.697z M80.445,30.729c0,1.319-1.069,2.388-2.388,2.388h-4.454c-1.319,0-2.388-1.069-2.388-2.388 v-3.362c0-1.319,1.069-2.388,2.388-2.388h4.454c1.319,0,2.388,1.069,2.388,2.388V30.729z" fill="#5fac0a" style="fill: rgb(95, 172, 10);"></path></g><metadata xmlns:d="https://loading.io/stock/" class="ld ld-heartbeat" style="transform-origin: 50px 50px 0px; animation-duration: 4s; animation-delay: -2.57143s; animation-direction: normal;">
<d:name class="ld ld-heartbeat" style="transform-origin: 50px 50px 0px; animation-duration: 4s; animation-delay: -2.28571s; animation-direction: normal;">film</d:name>
<d:tags class="ld ld-heartbeat" style="transform-origin: 50px 50px 0px; animation-duration: 4s; animation-delay: -2s; animation-direction: normal;">camera,dslr,develop,invert,lomo,grid,movie,film,camera</d:tags>
<d:license class="ld ld-heartbeat" style="transform-origin: 50px 50px 0px; animation-duration: 4s; animation-delay: -1.71429s; animation-direction: normal;">cc-by</d:license>
<d:slug class="ld ld-heartbeat" style="transform-origin: 50px 50px 0px; animation-duration: 4s; animation-delay: -1.42857s; animation-direction: normal;">zd3wp1</d:slug>
</metadata></g></g></g></g><style type="text/css" class="ld ld-heartbeat" style="transform-origin: 50px 50px 0px; animation-duration: 4s; animation-delay: -1.14286s; animation-direction: normal;">path,ellipse,circle,rect,polygon,polyline,line { stroke-width: 0; }@keyframes ld-heartbeat {
  0% {
    -webkit-transform: scale(1.05);
    transform: scale(1.05);
  }
  5% {
    -webkit-transform: scale(1.25);
    transform: scale(1.25);
  }
  39% {
    -webkit-transform: scale(0.9);
    transform: scale(0.9);
  }
  45% {
    -webkit-transform: scale(1.15);
    transform: scale(1.15);
  }
  60% {
    -webkit-transform: scale(1.05);
    transform: scale(1.05);
  }
  100% {
    -webkit-transform: scale(1);
    transform: scale(1);
  }
}
@-webkit-keyframes ld-heartbeat {
  0% {
    -webkit-transform: scale(1.05);
    transform: scale(1.05);
  }
  5% {
    -webkit-transform: scale(1.25);
    transform: scale(1.25);
  }
  39% {
    -webkit-transform: scale(0.9);
    transform: scale(0.9);
  }
  45% {
    -webkit-transform: scale(1.15);
    transform: scale(1.15);
  }
  60% {
    -webkit-transform: scale(1.05);
    transform: scale(1.05);
  }
  100% {
    -webkit-transform: scale(1);
    transform: scale(1);
  }
}
.ld.ld-heartbeat {
  -webkit-animation: ld-heartbeat 0.8s infinite cubic-bezier(0.215, 0.61, 0.355, 1);
  animation: ld-heartbeat 0.8s infinite cubic-bezier(0.215, 0.61, 0.355, 1);
}
</style></svg></svg>