<?xml version="1.0" standalone="no"?><!DOCTYPE svg PUBLIC "-//W3C//DTD SVG 1.1//EN" "http://www.w3.org/Graphics/SVG/1.1/DTD/svg11.dtd"><svg t="1544471313442" class="icon" style="" viewBox="0 0 1489 1024" version="1.1" xmlns="http://www.w3.org/2000/svg" p-id="2185" xmlns:xlink="http://www.w3.org/1999/xlink" width="290.8203125" height="200"><defs><style type="text/css"></style></defs><path d="M1012.486486 272.409877c-139.974909 0-232.608454 114.445513-314.332731 215.439985-69.823257 86.269258-135.758322 167.743955-216.063934 167.743955-83.471336 0-134.720595-85.789802-134.720595-147.29154 0-57.022436 56.221153-139.889526 144.335989-139.889526 85.500815 0 130.044256 68.430864 132.290475 71.938118a47.991585 47.991585 0 0 0 65.790571 15.730101 47.998153 47.998153 0 0 0 16.01252-65.967905c-2.92928-4.794561-73.343647-117.69662-214.093566-117.69662-141.630017 0-240.338862 124.323623-240.338863 235.8924 0 115.069463 94.754974 243.294413 230.716901 243.294413 126.096953 0 209.778462-103.378616 290.68832-203.361631 74.847694-92.46278 145.551049-179.822308 239.708345-179.822308 56.030684 0 92.83715 19.007479 112.514553 58.060163 17.056815 33.890321 17.043679 72.240241 17.023976 85.533654 0 7.612187-4.026118 45.824181-22.665795 80.239933-21.253698 39.19061-51.426592 57.442781-95.030825 57.442781-87.806145 0-135.246027-57.081547-153.104124-78.578257-4.643499-5.589276-7.986556-9.615393-12.452723-13.437906a48.011289 48.011289 0 0 0-67.682125 5.214906 47.985017 47.985017 0 0 0 3.139453 65.777436c0.860394 0.985184 1.904689 2.272491 3.152588 3.776537 23.276608 28.018626 94.078481 113.230453 226.940363 113.230454 161.478186 0 213.699493-157.445501 213.699493-234.322673 0.013136-48.963633-9.155641-92.035867-27.283022-128.047618-25.457148-50.579334-80.528921-110.898852-198.245244-110.898852z" p-id="2186" fill="#ea9518"></path></svg>