<?xml version="1.0" encoding="utf-8"?>
<!-- Generator: Adobe Illustrator 21.1.0, SVG Export Plug-In . SVG Version: 6.00 Build 0)  -->
<svg version="1.1" id="图层_1" xmlns="http://www.w3.org/2000/svg" xmlns:xlink="http://www.w3.org/1999/xlink" x="0px" y="0px"
	 viewBox="0 0 200 200" style="enable-background:new 0 0 200 200;" xml:space="preserve">
<style type="text/css">
	.st0{fill:#FFFFFF;}
</style>
<path class="st0" d="M174.3,42.6c3.3,0,5.8,0.4,7.7,1.3c1.8,0.9,3.1,1.9,3.9,3.2c0.8,1.3,1.1,2.6,1,4.1c-0.1,1.5-0.3,2.7-0.6,3.8
	l-2.3,6.5l-3.8,10.7l-4.2,11.6c-1.3,3.8-2.4,6.9-3.1,9.1c-1.6,4.6-3.5,7.9-5.8,9.7c-2.4,1.8-5.2,2.7-8.6,2.7h-6H141h-15h-16.5H65.6
	l2.7,15.7h89.1c5.7,0,8.6,2.4,8.6,7.2c0,2.4-0.6,4.4-1.8,6c-1,1.7-3.3,2.5-6.6,2.5h-8.5h-16.4h-20.4H91.6H74.7h-9.8
	c-2.4,0-4.4-0.5-5.9-1.6c-1.6-1-2.9-2.4-3.9-4.1c-1.1-1.7-1.9-3.5-2.6-5.5c-0.6-2-1.1-3.8-1.5-5.6l-1-5.1l-2-10l-2.5-13.4l-2.8-14.9
	L35,37.2H21.7c-1.7,0-3.2-0.4-4.4-1.3c-1.2-0.9-2.2-1.9-3-3.1c-0.7-1.2-1.3-2.5-1.6-3.9c-0.3-1.4-0.4-2.7-0.4-3.8
	c0-2.4,0.8-4.3,2.4-5.8c1.7-1.5,3.8-2.3,6.5-2.3h3.9h3.6H33h6c2.4,0,4.3,0.3,5.7,1c1.4,0.7,2.5,1.6,3.4,2.6c0.8,1,1.4,2.2,1.7,3.3
	l0.9,3c0.3,1,0.4,2.3,0.7,3.9l0.7,5.2l1.1,6.6H174.3z M144.5,141.8c2.3,0,4.5,0.4,6.5,1.2c2.1,0.8,3.8,1.9,5.3,3.4
	c1.5,1.5,2.7,3.1,3.6,5.1c0.9,2,1.3,4.1,1.3,6.3c0,2.2-0.4,4.3-1.3,6.3c-0.9,2-2.1,3.7-3.6,5.2c-1.5,1.5-3.2,2.6-5.3,3.5
	c-2,0.9-4.2,1.3-6.5,1.3c-2.2,0-4.4-0.4-6.4-1.3c-2-0.9-3.8-2-5.2-3.5c-1.5-1.5-2.7-3.1-3.6-5.2c-0.9-2-1.3-4.1-1.3-6.3
	c0-2.2,0.4-4.3,1.3-6.3c0.9-2,2.1-3.7,3.6-5.1c1.4-1.5,3.2-2.6,5.2-3.4C140.1,142.2,142.3,141.8,144.5,141.8z M70.9,141.4
	c2.3,0,4.4,0.4,6.4,1.2c2,0.8,3.8,1.9,5.3,3.4c1.5,1.5,2.7,3.1,3.5,5.1c0.9,2,1.3,4.1,1.3,6.3s-0.4,4.3-1.3,6.3
	c-0.8,2-2,3.7-3.5,5.2c-1.6,1.5-3.3,2.6-5.3,3.5c-2,0.9-4.1,1.3-6.4,1.3c-2.4,0-4.5-0.4-6.5-1.3c-1.9-0.9-3.7-2-5.2-3.5
	c-1.5-1.5-2.7-3.1-3.5-5.2c-0.9-2-1.3-4.1-1.3-6.3s0.4-4.3,1.3-6.3c0.8-2,2-3.7,3.5-5.1c1.6-1.5,3.3-2.6,5.2-3.4
	C66.4,141.8,68.6,141.4,70.9,141.4z"/>
</svg>
