<?xml version="1.0" encoding="utf-8"?>
<!-- Generator: Adobe Illustrator 21.1.0, SVG Export Plug-In . SVG Version: 6.00 Build 0)  -->
<svg version="1.1" id="图层_1" xmlns="http://www.w3.org/2000/svg" xmlns:xlink="http://www.w3.org/1999/xlink" x="0px" y="0px"
	 viewBox="0 0 200 200" style="enable-background:new 0 0 200 200;" xml:space="preserve">
<style type="text/css">
	.st0{fill:#008BF2;}
</style>
<path class="st0" d="M199.2,185.8H0.8v-143H200v143L199.2,185.8z M15,170.8h169.2v-113H15V170.8z"/>
<path class="st0" d="M132.5,87.5h13.3v13.3h-13.3V87.5z M139.2,111.7h13.3V125h-13.3V111.7z M113.3,87.5h13.3v13.3h-13.3V87.5z
	 M119.2,111.7h13.3V125h-13.3V111.7z M93.3,87.5h13.3v13.3H93.3L93.3,87.5z M100,111.7h13.3V125H100V111.7z M74.2,87.5h13.3v13.3
	H74.2V87.5z M80.8,111.7h13.3V125H80.8V111.7z M54.2,87.5h13.3v13.3H54.2V87.5z M60.8,111.7h13.3V125H60.8V111.7z M35,87.5h13.3
	v13.3H35V87.5z M41.7,111.7H55V125H41.7V111.7z M54.2,136.7H145V150H54.2V136.7z M151.7,87.5H165v13.3h-13.3V87.5z"/>
<path class="st0" d="M102.5,57.8c-2.5,0-5-1.3-6.7-2.6c0-0.6-6.1-9.4-0.8-19.4c7.7-14.6,36.9-13.8,43.2-16.1
	c4.5-1.7,5.1-4.5,4.3-7.1c-0.8-2.6,1.7-5.8,5-6.5c4.2-0.6,8.3,0.6,9.2,3.9c2.5,6.5,1.7,11.6-2.5,15.5c-5.8,5.8-16.7,7.1-23.3,7.8
	c-13.3,1.3-20.8,3.9-23.3,7.1c-3.3,3.9,0.8,9.7,0.8,9.7c1.7,2.6,0.8,5.8-3.3,7.1C104.2,57.2,103.3,57.8,102.5,57.8z"/>
</svg>
