<?xml version="1.0" encoding="utf-8"?>
<!-- Generator: Adobe Illustrator 21.1.0, SVG Export Plug-In . SVG Version: 6.00 Build 0)  -->
<svg version="1.1" id="图层_1" xmlns="http://www.w3.org/2000/svg" xmlns:xlink="http://www.w3.org/1999/xlink" x="0px" y="0px"
	 viewBox="0 0 200 200" style="enable-background:new 0 0 200 200;" xml:space="preserve">
<style type="text/css">
	.st0{fill:#D53939;}
	.st1{fill:#FCFCFC;}
</style>
<path class="st0" d="M0.2,0.6h199.4V200H0.2V0.6z"/>
<g>
	<path class="st1" d="M64.8,129.8L64.8,129.8c-0.3-8.8-1.5-26.7,3.4-42c8.8-26.6,30-33.2,30-33.2s-12-3.8-27.5-4.9
		c-12.4-0.8-29.1,1.8-29.1,1.8s-4.3,46,22.2,77.3C64.2,129.2,64.6,129.5,64.8,129.8z"/>
	<path class="st1" d="M67.8,132c0,0,40.5,6.3,64.6-17.7C156.5,90.4,150,51.5,150,51.5s-42.6-5.6-64.4,16.1
		C63.7,89.5,67.8,132,67.8,132z M68.1,133.2L68.1,133.2c0.2,0.1,0.3,0.1,0.3,0.1c-1-1-2.4-2.3-3.4-3.4"/>
	<path class="st1" d="M71.8,136.8L71.8,136.8c-0.1-0.2-0.3-0.3-0.5-0.5c-1.4-1.1-1.8-1.8-3.1-3.1c0,0,0,0.1,0,0.2 M151.9,127.9
		c-1.3-12.9-4.9-26-4.9-26s-7.2,18.9-29.8,27.9c-16.4,6.5-36.1,7.2-45.3,7c31.1,26.4,78.1,23.1,78.1,23.1S153.1,141.2,151.9,127.9
		L151.9,127.9z"/>
</g>
</svg>
