<?xml version="1.0" encoding="utf-8"?>
<!-- Generator: Adobe Illustrator 21.1.0, SVG Export Plug-In . SVG Version: 6.00 Build 0)  -->
<svg version="1.1" id="图层_1" xmlns="http://www.w3.org/2000/svg" xmlns:xlink="http://www.w3.org/1999/xlink" x="0px" y="0px"
	 viewBox="0 0 211.3 200" style="enable-background:new 0 0 211.3 200;" xml:space="preserve">
<style type="text/css">
	.st0{fill:#FFFFFF;}
</style>
<path class="st0" d="M61.3,76.4C74.1,37.6,105,28,105,28s-17.5-5.6-40.2-7.1c-18-1.2-42.4,2.6-42.4,2.6s-6.3,67.1,32.4,112.6
	c0.3,0.4,0.9,1,1.3,1.4c0,0,0,0,0-0.1C55.8,124.7,53.8,98.6,61.3,76.4L61.3,76.4L61.3,76.4z M182.9,134.7
	c-1.8-18.8-7.1-37.9-7.1-37.9s-10.4,27.6-43.4,40.6c-24,9.6-52.5,10.5-66,10.2c45.4,38.3,113.9,33.6,113.9,33.6
	S184.7,154.1,182.9,134.7L182.9,134.7L182.9,134.7z M60.5,140.8c0,0,59,9.2,94-25.7c35.2-34.9,25.7-91.5,25.7-91.5
	S118.2,15.4,86.3,47C54.6,78.8,60.5,140.8,60.5,140.8L60.5,140.8L60.5,140.8z"/>
</svg>
