<?xml version="1.0" encoding="utf-8"?>
<!-- Generator: Adobe Illustrator 21.0.0, SVG Export Plug-In . SVG Version: 6.00 Build 0)  -->
<svg version="1.1" id="Calque_1" xmlns="http://www.w3.org/2000/svg" xmlns:xlink="http://www.w3.org/1999/xlink" x="0px" y="0px"
	 viewBox="0 0 89.1 103.6" style="enable-background:new 0 0 89.1 103.6;" xml:space="preserve">
<style type="text/css">
	.st0{fill:#F4C6BA;}
	.st1{fill:#FEDB00;}
	.st2{fill:#A09958;}
</style>
<g>
	<path class="st0" d="M16.7,75.5h6.6c2.5,0,4.5-0.8,4.5-2.7c0-1.8-1.9-2.7-4.5-2.7h-6.6V75.5z M38.2,72.8c0,5.9-3.4,10.2-9.9,11.5
		l10.4,14H26.4l-9.2-13.6h-0.6v13.6H6.3V60h17C33,60,38.2,65,38.2,72.8"/>
	<polygon class="st1" points="58.3,103.6 58.3,65.3 84.1,65.3 84.1,74.5 68.7,74.5 68.7,79.6 82.7,79.6 82.7,88.8 68.7,88.8 
		68.7,94.3 84.1,94.3 84.1,103.6 	"/>
	<polygon class="st1" points="70.5,56 83,56 77.3,61.7 66.6,61.7 	"/>
	<path class="st2" d="M10.4,27.6h6.2c6.3,0,9.3-3.6,9.3-8.5c0-4.9-3.1-8.5-9.3-8.5h-6.2V27.6z M36.7,19.1c0,11.5-7.9,19.1-19.8,19.1
		H0V0h16.9C28.8,0,36.7,7.6,36.7,19.1"/>
	<path class="st0" d="M59.4,25.4c0,5.8,3.9,9.9,9.4,9.9c5.6,0,9.4-4.1,9.4-9.9c0-5.8-3.8-9.9-9.4-9.9C63.3,15.6,59.4,19.6,59.4,25.4
		 M89.1,25.4c0,11.4-8.4,19.8-20.2,19.8c-11.8,0-20.2-8.4-20.2-19.8C48.7,14,57,5.6,68.9,5.6C80.7,5.6,89.1,14,89.1,25.4"/>
</g>
</svg>
