<?xml version="1.0" encoding="utf-8"?>
<!-- Generator: Adobe Illustrator 21.1.0, SVG Export Plug-In . SVG Version: 6.00 Build 0)  -->
<svg version="1.1" id="图层_1" xmlns="http://www.w3.org/2000/svg" xmlns:xlink="http://www.w3.org/1999/xlink" x="0px" y="0px"
	 viewBox="0 0 200 200" style="enable-background:new 0 0 200 200;" xml:space="preserve">
<style type="text/css">
	.st0{fill:#CA1F28;}
	.st1{fill:#FFFFFF;}
</style>
<path class="st0" d="M100,0C44.8,0,0,44.8,0,100s44.8,100,100,100s100-44.8,100-100S155.2,0,100,0z"/>
<path class="st1" d="M109.2,130.3c-7.4,0-14.3-4.1-16.7-8.7c0,0-4,16.1-4.8,19.2c-1.4,5.3-4.2,10.5-6.7,14.7
	c-3.6,4.7-7.8,1.2-8.3-3.1c-0.2-4.8,0-10.5,1.2-15.7l8.8-38.1c0,0-2.2-4.5-2.2-11.1c0-10.4,5.9-18.1,13.2-18.1
	c6.2,0,9.2,4.8,9.2,10.5c0,6.4-4,16-6,24.8c-1.7,7.4,3.6,13.5,10.8,13.5c13,0,21.7-17,21.7-37.2c0-15.3-10.1-26.8-28.5-26.8
	c-20.8,0-33.7,15.8-33.7,33.5c0,6.1,1.8,10.4,4.5,13.7c1.3,1.5,1.4,2.1,1,3.9c-0.3,1.3-1.1,4.4-1.4,5.6c-0.5,1.8-1.9,2.4-3.4,1.7
	c-9.6-4-14-14.7-14-26.7c0-19.9,16.4-43.7,48.9-43.7c26.1,0,43.4,19.3,43.4,40.1C146.2,109.8,131.2,130.3,109.2,130.3z"/>
</svg>
