<?xml version="1.0" encoding="utf-8"?>
<!-- Generator: Adobe Illustrator 21.1.0, SVG Export Plug-In . SVG Version: 6.00 Build 0)  -->
<svg version="1.1" id="图层_1" xmlns="http://www.w3.org/2000/svg" xmlns:xlink="http://www.w3.org/1999/xlink" x="0px" y="0px"
	 viewBox="0 0 200 200" style="enable-background:new 0 0 200 200;" xml:space="preserve">
<style type="text/css">
	.st0{fill:#FFFFFF;}
</style>
<path class="st0" d="M100.3,74.3c-14,0-25,11.3-25,25.7s11,25.7,25,25.7s25-11.3,25-25.7S114.2,74.3,100.3,74.3z M100.3,115.4
	c-8.5,0-15-6.7-15-15.4c0-8.7,6.6-15.4,15-15.4s15,6.7,15,15.4C115.3,108.7,108.7,115.4,100.3,115.4z"/>
<path class="st0" d="M100.3,33c-43.5,0-81,27.6-95.8,67c14.7,39.4,52.3,67,95.8,67s81-27.6,95.8-67C181.1,60.6,143.7,33,100.3,33z
	 M100.3,138.5c-25,0-46.5-15.9-55-38.5c8.5-22.6,30-38.5,55-38.5s46.4,15.9,55,38.5C146.8,122.6,125.2,138.5,100.3,138.5z"/>
</svg>
