<?xml version="1.0" encoding="utf-8"?>
<!-- Generator: Adobe Illustrator 21.1.0, SVG Export Plug-In . SVG Version: 6.00 Build 0)  -->
<svg version="1.1" id="图层_1" xmlns="http://www.w3.org/2000/svg" xmlns:xlink="http://www.w3.org/1999/xlink" x="0px" y="0px"
	 viewBox="0 0 200.2 200" style="enable-background:new 0 0 200.2 200;" xml:space="preserve">
<style type="text/css">
	.st0{fill:#FF3014;}
</style>
<path class="st0" d="M188.7,77.4L174,86c0.8,4.5,1.4,9.1,1.4,13.8c0,4.7-0.5,9.3-1.4,13.8l14.7,8.6c6,3.5,8.1,11.3,4.6,17.3
	l-12.6,22c-3.5,6.1-11.2,8.1-17.2,4.6l-14.9-8.7c-6.9,6-14.9,10.8-23.6,14v10.8c0,7-5.6,12.7-12.6,12.7l-25.2,0
	c-6.9,0-12.6-5.7-12.6-12.7v-10.8c-8.8-3.1-16.7-8-23.6-14l-14.9,8.7c-6,3.5-13.7,1.4-17.2-4.6l-12.6-22c-3.5-6.1-1.4-13.8,4.6-17.3
	l14.7-8.6c-0.8-4.5-1.4-9.1-1.4-13.8c0-4.7,0.5-9.3,1.4-13.8l-14.7-8.6C5,73.9,3,66.1,6.5,60.1l12.6-22c3.5-6.1,11.2-8.1,17.2-4.6
	l14.9,8.7c6.9-6,14.9-10.8,23.6-14V17.4c0-7,5.6-12.7,12.6-12.7h25.2c6.9,0,12.6,5.7,12.6,12.7v10.8c8.8,3.1,16.7,8,23.6,14
	l14.9-8.7c6-3.5,13.7-1.4,17.2,4.6l12.6,22C196.8,66.1,194.7,73.9,188.7,77.4z M179.3,60.9l-6.3-11c-1.7-3-5.6-4.1-8.6-2.3
	l-17.5,10.2c-8.9-10.1-20.9-17.3-34.5-20.1v-14c0-3.5-2.8-6.3-6.3-6.3H93.6c-3.5,0-6.3,2.8-6.3,6.3v14c-13.6,2.8-25.6,10-34.5,20.1
	L35.4,47.6c-3-1.7-6.9-0.7-8.6,2.3l-6.3,11c-1.7,3-0.7,6.9,2.3,8.7l17.5,10.2c-2.1,6.3-3.3,13-3.3,20c0,7,1.3,13.7,3.3,20
	l-17.5,10.2c-3,1.8-4,5.6-2.3,8.7l6.3,11c1.7,3,5.6,4.1,8.6,2.3l17.5-10.2c8.9,10.1,20.9,17.3,34.5,20.1v14c0,3.5,2.8,6.3,6.3,6.3
	h12.6c3.5,0,6.3-2.8,6.3-6.3v-14c13.6-2.8,25.6-10,34.5-20.1l17.5,10.2c3,1.8,6.9,0.7,8.6-2.3l6.3-11c1.7-3,0.7-6.9-2.3-8.7
	l-17.6-10.2c2.1-6.3,3.3-13,3.3-20c0-7-1.3-13.7-3.3-20L177,69.6C180,67.8,181,64,179.3,60.9z M99.9,131.5
	c-17.4,0-31.4-14.2-31.4-31.7c0-17.5,14.1-31.7,31.4-31.7c17.4,0,31.4,14.2,31.4,31.7C131.3,117.3,117.2,131.5,99.9,131.5z
	 M99.9,80.8c-10.4,0-18.9,8.5-18.9,19s8.4,19,18.9,19c10.4,0,18.9-8.5,18.9-19C118.8,89.3,110.3,80.8,99.9,80.8z"/>
</svg>
