<?xml version="1.0" standalone="no"?><!DOCTYPE svg PUBLIC "-//W3C//DTD SVG 1.1//EN" "http://www.w3.org/Graphics/SVG/1.1/DTD/svg11.dtd"><svg t="1543346298948" class="icon" style="" viewBox="0 0 1024 1024" version="1.1" xmlns="http://www.w3.org/2000/svg" p-id="12096" xmlns:xlink="http://www.w3.org/1999/xlink" width="200" height="200"><defs><style type="text/css"></style></defs><path d="M945.483 271.636H531.615L697.902 23.808 664.842 0l-182.2 271.636H375.688L201.507 9.746l-33.8 23.93 158.269 237.96H78.272a62.358 62.358 0 0 0-61.926 62.666v627.032A62.284 62.284 0 0 0 78.272 1024h867.21a62.284 62.284 0 0 0 61.927-62.666V334.302a62.358 62.358 0 0 0-61.926-62.666z m20.6 689.698a20.613 20.613 0 0 1-20.6 20.847H78.272a20.687 20.687 0 0 1-20.601-20.847V334.302a20.774 20.774 0 0 1 20.6-20.848l425.094 0.247 0.247-0.247h441.87a20.687 20.687 0 0 1 20.602 20.848v627.032zM738.98 397.09H202.124a62.284 62.284 0 0 0-61.926 62.667V836a62.358 62.358 0 0 0 61.926 62.667H738.98A62.284 62.284 0 0 0 800.906 836V459.758a62.21 62.21 0 0 0-61.926-62.667z m20.725 438.91a20.798 20.798 0 0 1-20.725 20.848H202.124a20.774 20.774 0 0 1-20.601-20.848V459.758a20.687 20.687 0 0 1 20.6-20.848H738.98a20.712 20.712 0 0 1 20.725 20.848V836zM883.557 438.91z m-41.325 0a41.325 41.325 0 1 0 41.325-41.819 41.486 41.486 0 0 0-41.325 41.819m41.325 125.332z m-41.325 0a41.325 41.325 0 1 0 41.325-41.818 41.597 41.597 0 0 0-41.325 41.818" fill="#515151" p-id="12097"></path></svg>